<?xml version="1.0" encoding="UTF-8"?>
<svg width="24px" height="24px" viewBox="0 0 24 24" version="1.1" xmlns="http://www.w3.org/2000/svg">
    <g stroke="none" stroke-width="1" fill="none" fill-rule="evenodd">
        <circle fill="#1877F2" cx="12" cy="12" r="12"/>
        <path d="M16.6711267,15.4688995 L17.2031646,12.0036881 L13.8944334,12.0036881 L13.8944334,9.8011267 C13.8944334,8.8916515 14.3391646,8.00793052 15.8266418,8.00793052 L17.3444334,8.00793052 L17.3444334,5.0477672 C17.3444334,5.0477672 15.9689562,4.80000001 14.6599562,4.80000001 C11.9331646,4.80000001 10.1059562,6.48178358 10.1059562,9.4026097 L10.1059562,12.0036881 L7.06666667,12.0036881 L7.06666667,15.4688995 L10.1059562,15.4688995 L10.1059562,23.8476119 C10.7181646,23.9477672 11.3451646,24 11.9851646,24 C12.6251646,24 13.2521646,23.9477672 13.8644334,23.8476119 L13.8644334,15.4688995 L16.6711267,15.4688995 Z" fill="#FFFFFF"/>
    </g>
</svg> 